<?xml version="1.0" encoding="UTF-8"?>
<svg id="Capa_2" data-name="Capa 2" xmlns="http://www.w3.org/2000/svg" viewBox="0 0 939.48 193.63">
  <defs>
    <style>
      .cls-1 {
        fill: #fff;
      }

      .cls-2 {
        fill: none;
      }

      .cls-3 {
        fill: #828181;
      }
    </style>
  </defs>
  <g id="Capa_1-2" data-name="Capa 1">
    <g>
      <rect class="cls-1" x="213.26" y="50.04" width="29.61" height="87.83" rx="1.36" ry="1.36"/>
      <path class="cls-1" d="M312.48,87.1l-30.56-36.57c-.26-.31-.64-.49-1.05-.49h-22.34c-.75,0-1.36.61-1.36,1.36v85.1c0,.75.61,1.36,1.36,1.36h26.13c.75,0,1.36-.61,1.36-1.36v-34.82c0-1.27,1.59-1.85,2.41-.87l30.56,36.57c.26.31.64.49,1.05.49h22.34c.75,0,1.36-.61,1.36-1.36V51.41c0-.75-.61-1.36-1.36-1.36h-26.13c-.75,0-1.36.61-1.36,1.36v34.82c0,1.27-1.59,1.85-2.41.87Z"/>
      <path class="cls-1" d="M359.41,137.87h26.88c.75,0,1.36-.61,1.36-1.36v-25.38c0-.75.61-1.36,1.36-1.36h33.91c.75,0,1.36-.61,1.36-1.36v-19.61c0-.75-.61-1.36-1.36-1.36h-33.91c-.75,0-1.36-.61-1.36-1.36v-12.33c0-.75.61-1.36,1.36-1.36h39.06c.75,0,1.36-.61,1.36-1.36v-19.61c0-.75-.61-1.36-1.36-1.36h-68.67c-.75,0-1.36.61-1.36,1.36v85.1c0,.75.61,1.36,1.36,1.36Z"/>
      <path class="cls-1" d="M560.83,50.86l-36.95,84.53c-.43.98-1.77,1.11-2.38.22l-16.04-23.51c-.46-.67-.22-1.57.48-1.97,4.3-2.43,7.74-5.59,10.33-9.47,3.26-4.89,4.89-10.73,4.89-17.5s-1.63-12.65-4.89-17.63c-3.26-4.98-7.89-8.8-13.86-11.48-5.98-2.68-13.07-4.01-21.27-4.01h-40.92c-.75,0-1.36.61-1.36,1.36v85.1c0,.75.61,1.36,1.36,1.36h26.88c.75,0,1.36-.61,1.36-1.36v-19.36c0-.75.61-1.36,1.36-1.36h5.98c.45,0,.88.23,1.13.6l14.08,20.88c.25.38.68.6,1.13.6h59.82c.56,0,1.07-.35,1.27-.87l5.21-13.56c.2-.53.71-.87,1.27-.87h31.53c.56,0,1.07.35,1.27.87l5.21,13.56c.2.53.71.87,1.27.87h27.6c.98,0,1.64-1.01,1.25-1.91l-37.2-85.1c-.22-.5-.71-.82-1.25-.82h-27.32c-.54,0-1.03.32-1.25.82ZM488.35,75.64c1.96,1.84,2.95,4.35,2.95,7.53s-.98,5.69-2.95,7.53c-1.97,1.84-5,2.76-9.1,2.76h-9.43c-.75,0-1.36-.61-1.36-1.36v-17.85c0-.75.61-1.36,1.36-1.36h9.43c4.1,0,7.13.92,9.1,2.76ZM567.7,99.38l6.52-16.96c.45-1.17,2.1-1.17,2.54,0l6.52,16.96c.34.89-.32,1.85-1.27,1.85h-13.04c-.96,0-1.62-.96-1.27-1.85Z"/>
      <path class="cls-1" d="M670.43,98.25l-19.31-47.36c-.21-.51-.71-.85-1.26-.85h-28.9c-.98,0-1.64,1-1.26,1.89l35.99,85.1c.21.5.71.83,1.26.83h27.3c.55,0,1.04-.33,1.26-.83l35.99-85.1c.38-.9-.28-1.89-1.26-1.89h-26.15c-.55,0-1.04.33-1.26.84l-19.88,47.38c-.47,1.12-2.06,1.11-2.52-.01Z"/>
      <rect class="cls-1" x="725.18" y="50.04" width="29.61" height="87.83" rx="1.36" ry="1.36"/>
      <path class="cls-1" d="M797.59,50.86l-37.2,85.1c-.39.9.27,1.91,1.25,1.91h27.09c.56,0,1.07-.35,1.27-.87l5.21-13.56c.2-.53.71-.87,1.27-.87h31.53c.56,0,1.07.35,1.27.87l5.21,13.56c.2.53.71.87,1.27.87h27.6c.98,0,1.64-1.01,1.25-1.91l-37.2-85.1c-.22-.5-.71-.82-1.25-.82h-27.32c-.54,0-1.03.32-1.25.82ZM804.46,99.38l6.52-16.96c.45-1.17,2.1-1.17,2.54,0l6.52,16.96c.34.89-.32,1.85-1.27,1.85h-13.04c-.96,0-1.62-.96-1.27-1.85Z"/>
      <path class="cls-1" d="M899.83,113.55v-62.14c0-.75-.61-1.36-1.36-1.36h-26.88c-.75,0-1.36.61-1.36,1.36v85.1c0,.75.61,1.36,1.36,1.36h66.53c.75,0,1.36-.61,1.36-1.36v-20.24c0-.75-.61-1.36-1.36-1.36h-36.92c-.75,0-1.36-.61-1.36-1.36Z"/>
    </g>
    <g>
      <path class="cls-1" d="M193.04,19.91v88.82l-24.47-24.48-80.81.6c-10.31,0-18.75-8.95-18.75-19.91V19.78c.02-3.09.71-6.01,1.92-8.62,3.07-6.59,9.47-11.16,16.83-11.16h86.53c.45,0,.9.02,1.35.06,4.31.32,8.23,2.22,11.26,5.14,3.77,3.64,6.15,8.9,6.15,14.71Z"/>
      <path class="cls-3" d="M193.04,22.91v86.82l-24.47-24.48-80.81.6c-10.31,0-18.75-8.95-18.75-19.91V20.78c.02-3.09.71-6.01,1.92-8.62,13.73.41,30.65,1.65,38.11,5.09,13.58,6.27,21.12,6.15,21.12,6.15,0,0,12.14.46,16.86,2.32l34.66-.68s7.21-2.02,11.36-2.13Z"/>
      <path class="cls-2" d="M129.66,106.04v44.47c0,10.78-8.82,19.6-19.6,19.6H23.66L0,193.63v-87.46c0-5.72,2.49-10.89,6.43-14.48,3.16-2.88,7.26-4.75,11.77-5.07.47-.04.94-.05,1.41-.05h90.45c10.73,0,19.53,8.75,19.6,19.47Z"/>
      <path class="cls-1" d="M162.61,23.83l-116.37,62.73L0,111.49v82.14l23.66-23.52h77.84l28.16-64.07,36.12-82.21h-3.17ZM26.07,157.11l-11.83-2.08,28.89-23.68,9.17,1.4-26.23,24.36ZM62.9,122.97l-8.36-1.5,15.84-13.12,5.59,1.16-13.07,13.46ZM83.8,102.4l-6.79-.63,12.25-10.56,5.33.4-10.79,10.79ZM102.66,84.24l-5.57-.34,9.8-8.88,4.35.23-8.58,8.99ZM116.87,70.09l-3.65-.76,6.78-6.49,3.02.29-6.15,6.96ZM128.07,58.91h-3.56l6.13-5.38h2.57l-5.14,5.38ZM136.97,50.21h-2.56l4.22-4.03h2.32l-3.98,4.03ZM143.93,43.48l-1.86-.31,3.06-2.98h1.89l-3.09,3.29ZM149.97,37.9l-1.36-.06-.21-.03,2.06-2.08h1.46l-1.95,2.17ZM154.37,33.87l-1.37-.07,1.6-1.74h1.36l-1.59,1.81ZM157.86,30.69l-1.06-.08,1.43-1.32.81.09-1.18,1.31ZM160.66,28.24l-1.07-.09,1.62-1.54.81.09-1.36,1.54ZM162.24,25.36l1.43-1.32h.86l-1.18,1.35-1.11-.03Z"/>
      <path class="cls-1" d="M129.66,152.07v-20.02s0-7.12,0-7.12l31.89-89.95,3.48-9.45-.1.24-59.32,144.33,5.76-.04s16.05-.71,18.29-18Z"/>
      <path class="cls-1" d="M157.2,26.75l-117.87,59.82L0,106.53v-.35c0-5.72,2.49-10.89,6.43-14.48l11.77-5.07L157.2,26.75Z"/>
    </g>
  </g>
</svg>